<?xml version="1.0" encoding="utf-8"?>
<!-- Generator: Adobe Illustrator 25.4.1, SVG Export Plug-In . SVG Version: 6.00 Build 0)  -->
<svg version="1.1" id="레이어_1" xmlns="http://www.w3.org/2000/svg" xmlns:xlink="http://www.w3.org/1999/xlink" x="0px"
	 y="0px" viewBox="0 0 227.5 44.2" style="enable-background:new 0 0 227.5 44.2;" xml:space="preserve">
<style type="text/css">
	.st0{fill:none;stroke:#FFFFFF;stroke-width:6;}
	.st1{enable-background:new    ;}
	.st2{fill:#FFFFFF;}
</style>
<path class="st0" d="M2.1,21.5c13.3-13.3,26.7,13.3,40,0s26.7,13.3,40,0"/>
<g class="st1">
	<path class="st2" d="M97.4,2.8h4.3v6.7h6.1V2.8h4.3v17.8h-4.3v-7.2h-6.1v7.2h-4.3V2.8z"/>
	<path class="st2" d="M132.2,20.6h-4.7l-1.3-3.2h-5.4l-1.2,3.2H115l6.6-17.8h3.8L132.2,20.6z M123.6,8l-1.6,5.5h3.1L123.6,8z"/>
	<path class="st2" d="M139.5,9.5v11.1h-4.2V2.8h4.2l6.3,10.7V2.8h4.2v17.8h-3.9L139.5,9.5z"/>
</g>
<g class="st1">
	<path class="st2" d="M163.8,16.5c0.3-0.2,0.6-0.5,0.7-1c0.2-0.5,0.3-0.9,0.3-1.4h-3.7v-3.7h8.1v1.8c0,0.5-0.1,1.1-0.1,1.6
		s-0.1,1-0.2,1.4c-0.1,0.5-0.2,0.9-0.3,1.3c-0.2,0.4-0.4,0.9-0.6,1.3c-0.6,1-1.3,1.7-2.1,2.2c-0.8,0.5-1.6,0.8-2.5,1
		c-0.5,0.1-1,0.2-1.5,0.2c-0.5,0-1.1,0-1.6-0.1c-0.6-0.1-1.1-0.2-1.6-0.3c-0.5-0.2-1-0.3-1.4-0.6c-1.3-0.8-2.3-1.9-2.9-3.3
		c-0.6-1.4-1-3.1-1-5.1c0-2,0.4-3.7,1.1-5.1c0.7-1.4,1.7-2.5,3-3.3c0.4-0.2,0.8-0.4,1.3-0.6c0.5-0.2,1-0.3,1.5-0.3
		c0.5-0.1,1.1-0.1,1.6-0.1c0.5,0,1,0.1,1.5,0.2c0.8,0.2,1.5,0.5,2.3,0.9s1.6,1.1,2.4,2l-2.6,2.7c-0.8-0.9-1.6-1.4-2.4-1.7
		s-1.7-0.2-2.5,0c-1,0.3-1.8,0.9-2.3,1.8s-0.8,2-0.8,3.4c0,1.4,0.3,2.6,0.8,3.5c0.5,0.9,1.2,1.5,2.1,1.8c0.5,0.1,1,0.2,1.6,0.1
		C162.8,17,163.3,16.8,163.8,16.5z"/>
</g>
<g class="st1">
	<path class="st2" d="M188.1,20.6h-4.7l-1.3-3.2h-5.4l-1.2,3.2H171l6.6-17.8h3.8L188.1,20.6z M179.6,8l-1.6,5.5h3.1L179.6,8z"/>
	<path class="st2" d="M195.4,9.5v11.1h-4.2V2.8h4.2l6.3,10.7V2.8h4.2v17.8h-3.9L195.4,9.5z"/>
	<path class="st2" d="M219.6,16.5c0.3-0.2,0.6-0.5,0.7-1c0.2-0.5,0.3-0.9,0.3-1.4H217v-3.7h8.1v1.8c0,0.5-0.1,1.1-0.1,1.6
		s-0.1,1-0.2,1.4c-0.1,0.5-0.2,0.9-0.3,1.3c-0.2,0.4-0.4,0.9-0.6,1.3c-0.6,1-1.3,1.7-2.1,2.2c-0.8,0.5-1.6,0.8-2.5,1
		c-0.5,0.1-1,0.2-1.5,0.2c-0.5,0-1.1,0-1.6-0.1c-0.6-0.1-1.1-0.2-1.6-0.3c-0.5-0.2-1-0.3-1.4-0.6c-1.3-0.8-2.3-1.9-2.9-3.3
		c-0.6-1.4-1-3.1-1-5.1c0-2,0.4-3.7,1.1-5.1c0.7-1.4,1.7-2.5,3-3.3c0.4-0.2,0.8-0.4,1.3-0.6c0.5-0.2,1-0.3,1.5-0.3
		c0.5-0.1,1.1-0.1,1.6-0.1c0.5,0,1,0.1,1.5,0.2c0.8,0.2,1.5,0.5,2.3,0.9s1.6,1.1,2.4,2l-2.6,2.7c-0.8-0.9-1.6-1.4-2.4-1.7
		s-1.7-0.2-2.5,0c-1,0.3-1.8,0.9-2.3,1.8s-0.8,2-0.8,3.4c0,1.4,0.3,2.6,0.8,3.5c0.5,0.9,1.2,1.5,2.1,1.8c0.5,0.1,1,0.2,1.6,0.1
		C218.6,17,219.2,16.8,219.6,16.5z"/>
</g>
<g class="st1">
	<path class="st2" d="M97.2,32c-0.1,0-0.2-0.1-0.2-0.2v-0.5c0-0.1,0.1-0.2,0.2-0.2h8.8c0.2,0,0.2,0.1,0.2,0.2v0.5
		c0,0.1-0.1,0.2-0.2,0.2H97.2z M101.6,38.3c-1.9,0-3.3-1.2-3.3-2.8c0-1.5,1.4-2.8,3.3-2.8c1.9,0,3.3,1.2,3.3,2.8
		C104.9,37.1,103.5,38.3,101.6,38.3z M99.3,29.8c-0.1,0-0.2-0.1-0.2-0.2v-0.6c0-0.1,0.1-0.2,0.2-0.2h4.4c0.2,0,0.2,0.1,0.2,0.2v0.5
		c0,0.1-0.1,0.2-0.2,0.2H99.3z M101.6,33.7c-1.3,0-2.2,0.8-2.2,1.8s1,1.8,2.2,1.8c1.3,0,2.2-0.8,2.2-1.8S102.9,33.7,101.6,33.7z
		 M100.7,43c-1,0-1.2-0.3-1.2-1.2v-2.2c0-0.1,0.1-0.2,0.2-0.2h0.7c0.1,0,0.2,0.1,0.2,0.2v2.1c0,0.3,0.1,0.3,0.4,0.3h8
		c0.1,0,0.2,0.1,0.2,0.2v0.6c0,0.1-0.1,0.2-0.2,0.2H100.7z M107.6,39.8c-0.1,0-0.2-0.1-0.2-0.2V28.7c0-0.1,0.1-0.2,0.2-0.2h0.7
		c0.1,0,0.2,0.1,0.2,0.2V34h2.2c0.1,0,0.2,0.1,0.2,0.2v0.5c0,0.1-0.1,0.2-0.2,0.2h-2.2v4.7c0,0.1-0.1,0.2-0.2,0.2H107.6z"/>
	<path class="st2" d="M113,37.2c-0.2,0.1-0.3,0-0.4-0.1l-0.2-0.5c-0.1-0.2,0-0.3,0.1-0.3c3.4-1.4,5.3-3.4,5.7-5.6
		c0.1-0.3-0.1-0.5-0.4-0.5h-4.9c-0.1,0-0.2-0.1-0.2-0.2v-0.6c0-0.1,0.1-0.2,0.2-0.2h5.3c1,0,1.3,0.4,1.2,1.1
		C119,33.2,116.9,35.5,113,37.2z M119.1,43.3c-2.8,0-4.6-1.1-4.6-2.9c0-1.8,1.9-2.9,4.6-2.9c2.5,0,4.6,1.1,4.6,2.9
		C123.7,42.2,121.6,43.3,119.1,43.3z M119.1,38.4c-2,0-3.5,0.7-3.5,2c0,1.2,1.4,1.9,3.5,1.9c1.9,0,3.5-0.7,3.5-1.9
		C122.6,39.1,120.9,38.4,119.1,38.4z M122.7,37.4c-0.1,0-0.2-0.1-0.2-0.2v-8.5c0-0.1,0.1-0.2,0.2-0.2h0.7c0.1,0,0.2,0.1,0.2,0.2v3.8
		h2.2c0.1,0,0.2,0.1,0.2,0.2v0.5c0,0.1-0.1,0.2-0.2,0.2h-2.2v3.7c0,0.1-0.1,0.2-0.2,0.2H122.7z"/>
	<path class="st2" d="M137.4,28.9c1,0,1.2,0.4,1.2,1.3c0,1.7-0.2,3.3-0.7,5.3h2.6c0.1,0,0.2,0.1,0.2,0.2v0.5c0,0.1-0.1,0.2-0.2,0.2
		h-6.3v6.4c0,0.1-0.1,0.2-0.2,0.2h-0.7c-0.1,0-0.2-0.1-0.2-0.2v-6.4H127c-0.1,0-0.2-0.1-0.2-0.2v-0.5c0-0.1,0.1-0.2,0.2-0.2h9.9
		c0.4-1.7,0.7-4.1,0.7-5.3c0-0.3-0.1-0.3-0.4-0.3h-8.2c-0.1,0-0.2-0.1-0.2-0.2v-0.6c0-0.1,0.1-0.2,0.2-0.2H137.4z"/>
	<path class="st2" d="M149.3,39.7h6.3c0.1,0,0.2,0.1,0.2,0.2v0.5c0,0.1-0.1,0.2-0.2,0.2H142c-0.1,0-0.2-0.1-0.2-0.2v-0.5
		c0-0.1,0.1-0.2,0.2-0.2h6.2v-3.5c0-0.1,0.1-0.2,0.2-0.2h0.7c0.1,0,0.2,0.1,0.2,0.2V39.7z M154.5,35.9c0,0.1-0.1,0.1-0.3,0.1
		c-1.6-0.4-3.4-1.2-5-2.1c-1.6,1-3.3,1.8-5.5,2.5c-0.1,0-0.3,0-0.3-0.1l-0.2-0.5c0-0.1,0-0.2,0.1-0.3c3.8-1.4,5.9-2.6,8-4.6
		c0.2-0.2,0.2-0.4-0.1-0.4h-6.9c-0.1,0-0.2-0.1-0.2-0.2v-0.6c0-0.1,0.1-0.2,0.2-0.2h7.3c1.7,0,1.8,0.7,0.9,1.6
		c-0.8,0.8-1.6,1.5-2.5,2.1c1.4,0.8,3,1.4,4.5,1.8c0.2,0,0.2,0.1,0.1,0.2L154.5,35.9z"/>
	<path class="st2" d="M163.8,35.2h6.8c0.1,0,0.2,0.1,0.2,0.2V36c0,0.1-0.1,0.2-0.2,0.2h-13.6c-0.1,0-0.2-0.1-0.2-0.2v-0.5
		c0-0.1,0.1-0.2,0.2-0.2h5.7v-2.7c0-0.1,0.1-0.2,0.2-0.2h0.7c0.1,0,0.2,0.1,0.2,0.2V35.2z M163.8,43.3c-2.3,0-5-0.8-5-2.9
		c0-2,2.7-3,5-3c2.4,0,5,0.9,5,3S166.2,43.3,163.8,43.3z M167.5,28.8c1,0,1.2,0.4,1.2,1.3c0,1.3-0.2,3-0.4,4c0,0.1-0.1,0.3-0.2,0.2
		l-0.6,0c-0.2,0-0.2-0.1-0.2-0.3c0.3-0.9,0.4-2.8,0.4-3.9c0-0.3-0.1-0.3-0.4-0.3h-8c-0.1,0-0.2-0.1-0.2-0.2V29
		c0-0.1,0.1-0.2,0.2-0.2H167.5z M163.8,38.4c-1.6,0-3.8,0.6-3.8,2c0,1.4,2.2,1.9,3.8,1.9c1.6,0,3.8-0.5,3.8-1.9
		C167.7,39,165.4,38.4,163.8,38.4z"/>
	<path class="st2" d="M183.4,36.3c-0.1,0-0.2-0.1-0.2-0.2v-3.2h-2.8c-0.3,1.8-1.8,3.1-3.8,3.1c-2,0-3.7-1.5-3.7-3.6
		c0-2.2,1.7-3.6,3.7-3.6c1.8,0,3.5,1.1,3.8,3.1h2.8v-3.3c0-0.1,0.1-0.2,0.2-0.2h0.7c0.1,0,0.2,0.1,0.2,0.2v7.4
		c0,0.1-0.1,0.2-0.2,0.2H183.4z M176.6,29.8c-1.4,0-2.6,0.9-2.6,2.6c0,1.6,1.1,2.6,2.6,2.6c1.4,0,2.7-1,2.7-2.6
		C179.3,30.7,178,29.8,176.6,29.8z M176.4,43.1c-1,0-1.2-0.2-1.2-1.1v-4.6c0-0.1,0.1-0.2,0.2-0.2h0.7c0.1,0,0.2,0.1,0.2,0.2V39h6.9
		v-1.7c0-0.1,0.1-0.2,0.2-0.2h0.7c0.1,0,0.2,0.1,0.2,0.2V42c0,0.8-0.3,1-1.2,1H176.4z M176.3,40v1.7c0,0.3,0.1,0.4,0.4,0.4h6.1
		c0.3,0,0.4-0.1,0.4-0.4V40H176.3z"/>
</g>
</svg>
